<?xml version="1.0" encoding="utf-8"?>
<!-- Generator: Adobe Illustrator 16.0.0, SVG Export Plug-In . SVG Version: 6.00 Build 0)  -->
<!DOCTYPE svg PUBLIC "-//W3C//DTD SVG 1.1//EN" "http://www.w3.org/Graphics/SVG/1.1/DTD/svg11.dtd">
<svg version="1.1" id="Layer_1" xmlns="http://www.w3.org/2000/svg" xmlns:xlink="http://www.w3.org/1999/xlink" x="0px" y="0px"
	 width="612px" height="767.961px" viewBox="0 10.11 612 767.961" enable-background="new 0 10.11 612 767.961"
	 xml:space="preserve">
<g id="hand-symbol">
	<path d="M279.473,639.424l-48.412,0.086v70.281h48.34v55.16h70.281v-55.16h48.344c0-23.373,0-46.967,0-70.284l-48.258-0.083
		l-0.086-40.615c110.983-16.935,196.055-112.828,196.055-228.529c0-127.649-103.544-231.191-231.192-231.191
		c-127.652,0-231.191,103.542-231.191,231.191c0,115.701,85.071,211.562,196.051,228.504L279.473,639.424L279.473,639.424z"/>
	<path fill="#FFFFFF" d="M265.171,484.213c0.827-22.317,0.589-42.086-0.527-56.832c-1.711-22.607-1.817-21.099-7.352-25.504
		c-15.575-12.4-27.38-23.366-36.84-40.545c-7.265-13.19-11.5-27.5-12.275-42.148c-0.685-12.889-0.112-17.441,7.672-27.172
		c1.575-1.97,8.577-8.58,8.581-9.613c0.028-10.988,10.149-21.992,20.025-26.948c0.051-6.036,2.708-14.835,5.865-19.623
		c3.987-6.04,13.314-11.28,20.536-12.682c3.073-0.596,19.329-10.289,26.375-12.455c10.357-3.185,12.355-11.722,30.587-15.808
		l8.334-1.868c3.052,2.683,22.009,19.779,23.711,20.205c8.172,2.046,7.248,8.335,7.248,19.13v8.565
		c21.258,10.399,12.714,16.883,18.067,31.083c5.251,13.932,19.8,16.049,6.93,41.517c-9.521,18.84-12.056,36.178-16.831,64.673
		c-9.883,58.991,0.697,96.56,15.982,161.556l-0.013,0.004l1.546,5.66c66.957-29.955,113.633-97.158,113.633-175.236
		c0-105.945-85.936-191.881-191.883-191.881c-105.948,0-191.883,85.936-191.883,191.881c0,87.266,58.306,160.942,138.067,184.219
		C262.944,531.118,264.316,507.344,265.171,484.213L265.171,484.213z"/>
	<path fill="#FFFFFF" d="M299.751,223.011l-5.119,2.194c2.83-0.098,9.011-0.991,8.422,0.94c-1.242,4.063-3.744,2.209-4.464,5.082
		c-1.169,4.66,5.892,7.382,6.128,11.394c0.078,1.274-3.198,5.045-3.048,5.652c0.151,0.608,3.802-0.882,3.879-0.579
		c0.103,0.426,8.688,2.059,16.516-2.759v0.002c6.579-4.049,8.394-2.265,7.387-6.344c-1.223-4.958-4.146-9.154-9.568-13.749
		C313.733,219.641,312.874,220.616,299.751,223.011z"/>
	<path fill="#FFFFFF" d="M354.603,244.474l-0.08-20.158c-1.631-0.918-4.174-2.994-6.354-4.03c-4.551-2.161-8.278-4.434-8.278-5.049
		c0-2.283-6.497-5.469-10.336,0.392c-5.081,7.752,7.691,15.06,10.204,21.75c1.637,4.357,8.724,3.545,11.891,5.945
		C353.22,244.515,354.057,245.023,354.603,244.474L354.603,244.474z"/>
	<path fill="#FFFFFF" d="M319.988,321.649c5.273-2.727,7.766-6.846,7.766-12.83c0-5.07-0.372-5.735-7.448-13.274
		c-4.441-4.73-22.954-24.831-28.003-26.044c-0.897-0.216-29.44-9.507-31.788-7.224c-1.436,1.393,21.992,8.908,23.127,12.516
		c1.354,4.3-2.903,2.146-0.585,8.244c1.25,3.291,2.766,3.855,2.766,7.941c0.004,22.145,12.795,10.394,18,24.109
		C307.363,324.413,314.223,324.629,319.988,321.649L319.988,321.649L319.988,321.649z"/>
	<path fill="#FFFFFF" d="M222.899,333.726c2.743,11.143,7.924,21.971,14.722,31.431c13.918-3.166,14.378-5.845,26.363,4.894
		c15.957,14.295,24.903,19.437,33.81,19.437c3.014,0,5.896,0.611,6.5,1.38c0.598,0.757,1.389,8.33,1.759,16.826
		c0.729,16.857,3.089,30.599,9.19,53.517c3.996,15.006,14.623,45.703,15.514,44.812c0.261-0.263-0.038-5.116-0.672-10.781v-0.005
		c-1.052-9.425-3.151-62.51-2.676-67.682c0.508-5.567,1.021-19.69,4.386-24.645c1.419-2.092,2.58-4.173,2.58-4.627
		c0-2.09-4.412-5.408-10.194-7.668c-8.562-3.352-9.326-8.131-14.362-14.634c-4.717-6.092-3.76-13.19-9.487-17.043l-3.698-2.486
		l-4.258,2.173c-9.627,4.91-30.18,1.896-42.555-6.241C240.497,346.25,230.479,340.908,222.899,333.726L222.899,333.726z"/>
	<path fill="#FFFFFF" d="M379.214,549.717h1.838c-2.974-10.896-5.438-21.885-7.961-32.896
		c-6.158-24.913-11.754-49.623-13.821-73.566l0,0c-1.624-12.429-1.688-44.552-0.113-54.703c0.616-3.947,2.146-14.503,3.401-22.888
		c2.533-16.88,6.831-30.227,11.406-41.108c2.095-6.388,4.301-11.319,7.003-16.661c9.182-18.171-1.385-15.351-7.467-31.497
		c-7.374-19.554,4.587-16.243-15.379-26.01l-3.516-1.722v-0.196c-1.366-0.433-2.761-0.993-3.921-1.602
		c-6.185-3.251-19.657-3.401-24.438-0.272l-3.089,2.024l5.382-0.089c1.416,0.787,3.96,1.88,5.325,1.9
		c3.347,0.054,11.267,7.655,12.015,11.397c0.688,3.46-4.905,11.718-9.41,14.673c-4.379,2.868-6.115-0.302-1.728-4.566
		c6.187-6.007,6.403-8.85,1.052-13.842c-3.631-3.388-5.554-4.274-10.661-4.912c-6.319-0.79-11.522,0.443-13.882,3.287
		c-1.669,2.014,1.744,12.638,5.252,16.354c2.656,2.816,4.561,3.586,15.667,6.34c9.148,2.269,17.034,2.34,25.379,0.234
		c13.208-3.334,16.146-1.01,8.527,6.736c-2.563,2.606-6.089,7.367-7.833,10.58c-5.337,9.84-0.948,17.619,3.823,28.955
		c-3.586,6.11-6.094,9.958-12.252,16.673c-4.443,4.85-7.197,8.919-7.834,11.587c-1.457,6.12,0.059,54.624,0.734,73.404
		C344.363,473.203,355.88,520.854,379.214,549.717L379.214,549.717z"/>
	<path fill="#FFFFFF" d="M298.462,341.863c2.584-1.18,2.81-1.848,2.81-8.333c0-14.191-5.579-13.664-18.213-25.74
		c-9.069-8.667-40.718-18.769-41.062-14.896c-0.023,0.235,18.043,11.02,16.459,13.234c-2.458,3.433-1.608,2.209-0.743,8.518
		c0.635,4.583,1.345,5.799,4.752,8.116c2.207,1.5,4.444,2.726,4.975,2.726c0.53,0,2.355,2.302,5.074,3.256
		c2.532,0.886,8.882,2.087,12.564,7.813c2.855,4.443,8.734,5.015,9.078,5.571C294.949,343.412,295.075,343.404,298.462,341.863z"/>
</g>
<g id="spaces-between">
	<polygon fill="#FFFFFF" points="429.465,163.403 392.452,197.205 426.247,221.069 466.2,190.361 	"/>
	<polygon fill="#FFFFFF" points="131.676,422.78 94.802,453.369 105.836,481.444 144.108,450.854 	"/>
</g>
<g id="brush">
	<path d="M232.249,341.139L13.174,530.059c0,0-5.901,4.72-1.967,10.228c3.934,5.509,9.835,3.148,9.835,3.148L256.749,356.07
		L232.249,341.139z"/>
	<path fill="#FFFFFF" d="M235.396,343.057L15.535,532.418c0,0-1.967,2.753,0,5.508c1.968,2.756,5.902,0,5.902,0l229.447-185.43
		L235.396,343.057z"/>
	<path d="M347.689,241.729l51.606-43.743c0,0,32.69-28.316,48.034-44.84c15.345-16.524,66.688-68.458,74.359-76.13
		c7.673-7.672,49.573-54.884,49.573-54.884S583.656,36.885,590.147,54C596.639,71.114,599,93.54,599,93.54l-70.229,51.934
		c0,0-31.869,16.524-48.393,27.737c-16.524,11.213-62.557,47.858-62.557,47.858l-35.407,35.402l-30.503-12.95L347.689,241.729z"/>
	<path fill="#FFFFFF" d="M513.428,88.819c0,0,5.901,2.951,16.524,14.754c10.622,11.803,11.803,17.115,11.803,17.115l-17.114,9.442
		l-4.131-4.427l-2.951,1.476l8.853,13.869c0,0-11.213-1.181-28.918,5.901c-17.704,7.082-61.967,41.606-61.967,41.606h-7.081
		c0,0,48.472-45.237,56.655-59.31c7.377-12.689,12.098-20.361,12.098-20.361L513.428,88.819z"/>
	<path fill="#FFFFFF" d="M350.378,242.6l40.002-30.304c0,0,9.738-8.102,14.164-1.61c4.427,6.491-4.426,14.697-4.426,14.697
		l-31.868,26.318L350.378,242.6z"/>
	<path fill="#FFFFFF" d="M415.799,210.661c0,0-13.167-12.738-3.864-18.892c9.304-6.155,14.312,3.005,14.312,3.005
		s-6.584-0.716-8.158,4.15C416.515,203.791,415.799,210.661,415.799,210.661z"/>
</g>
</svg>
